<?xml version="1.0" standalone="no"?>
<!DOCTYPE svg PUBLIC "-//W3C//DTD SVG 20010904//EN"
 "http://www.w3.org/TR/2001/REC-SVG-20010904/DTD/svg10.dtd">
<svg version="1.0" xmlns="http://www.w3.org/2000/svg"
 width="700.000000pt" height="700.000000pt" viewBox="0 0 700.000000 700.000000"
 preserveAspectRatio="xMidYMid meet">
<metadata>
Created by potrace 1.14, written by Peter Selinger 2001-2017
</metadata>
<g transform="translate(0.000000,700.000000) scale(0.100000,-0.100000)"
fill="#000000" stroke="none">
<path d="M4347 5834 c-1 -1 -54 -4 -117 -7 -63 -4 -142 -11 -175 -16 -33 -5
-78 -12 -100 -16 -111 -18 -318 -77 -450 -128 -131 -52 -434 -222 -531 -300
-155 -124 -311 -273 -389 -372 -22 -27 -48 -59 -58 -70 -23 -26 -144 -204
-174 -259 -85 -150 -171 -350 -213 -496 -28 -93 -68 -279 -76 -345 -3 -27 -9
-79 -13 -114 -11 -91 -6 -400 8 -501 25 -181 91 -444 136 -545 8 -16 26 -59
40 -95 51 -124 197 -378 271 -470 173 -214 330 -368 505 -492 87 -63 109 -78
113 -78 3 0 21 -11 41 -24 52 -36 236 -128 335 -169 177 -73 417 -134 595
-152 33 -4 71 -8 85 -11 32 -6 343 -5 395 0 149 17 223 29 340 56 578 134
1094 502 1429 1018 159 246 287 581 331 868 9 60 19 120 21 134 10 48 12 396
3 465 -17 143 -20 162 -41 260 -50 246 -130 454 -272 710 -42 76 -159 239
-241 335 -36 43 -207 213 -255 255 -200 174 -477 333 -736 425 -87 31 -285 83
-354 94 -19 3 -48 8 -65 11 -76 13 -96 15 -180 21 -105 6 -205 11 -208 8z
m248 -597 c11 -2 43 -8 70 -11 86 -12 278 -65 350 -96 269 -116 454 -243 640
-440 151 -159 287 -380 363 -590 34 -93 58 -182 77 -280 3 -14 7 -36 10 -49
17 -89 23 -313 11 -436 -12 -120 -15 -137 -46 -260 -174 -697 -756 -1215
-1475 -1312 -33 -4 -139 -8 -235 -7 -290 1 -525 57 -775 184 -484 248 -834
714 -930 1240 -4 19 -8 42 -10 50 -1 8 -6 47 -10 85 -32 328 21 636 160 932
216 457 621 800 1107 937 166 47 302 63 498 61 96 -2 184 -5 195 -8z"/>
<path d="M1903 5715 c-136 -45 -150 -51 -293 -118 -372 -174 -699 -463 -944
-832 -36 -55 -66 -105 -66 -112 0 -6 -4 -13 -9 -15 -7 -3 -73 -134 -124 -248
-46 -104 -118 -346 -132 -446 -3 -22 -8 -45 -10 -52 -3 -7 -7 -40 -11 -75 -3
-34 -10 -83 -14 -110 -13 -85 -4 -420 15 -532 2 -16 7 -48 10 -70 4 -22 10
-56 15 -75 5 -19 11 -46 14 -60 11 -54 16 -74 41 -158 35 -115 107 -289 157
-382 23 -41 49 -89 58 -106 16 -31 131 -202 155 -233 257 -320 520 -534 848
-690 178 -85 427 -170 428 -148 3 83 0 588 -5 595 -3 5 -27 17 -53 27 -133 50
-335 167 -452 262 -296 238 -512 574 -602 933 -11 47 -23 96 -25 110 -2 14 -6
34 -9 45 -8 38 -19 191 -19 275 0 588 289 1125 784 1457 104 70 331 183 367
183 8 0 13 13 14 33 2 113 0 579 -3 582 -2 2 -62 -16 -135 -40z"/>
</g>
</svg>
