<?xml version="1.0" encoding="UTF-8" standalone="no"?>
<!-- Created with Inkscape (http://www.inkscape.org/) -->

<svg
   width="210mm"
   height="297mm"
   viewBox="0 0 210 297"
   version="1.1"
   id="svg3370"
   sodipodi:docname="logo2.svg"
   inkscape:version="1.2.1 (9c6d41e410, 2022-07-14)"
   xmlns:inkscape="http://www.inkscape.org/namespaces/inkscape"
   xmlns:sodipodi="http://sodipodi.sourceforge.net/DTD/sodipodi-0.dtd"
   xmlns="http://www.w3.org/2000/svg"
   xmlns:svg="http://www.w3.org/2000/svg">
  <sodipodi:namedview
     id="namedview3372"
     pagecolor="#ffffff"
     bordercolor="#000000"
     borderopacity="0.25"
     inkscape:showpageshadow="2"
     inkscape:pageopacity="0.0"
     inkscape:pagecheckerboard="0"
     inkscape:deskcolor="#d1d1d1"
     inkscape:document-units="mm"
     showgrid="false"
     inkscape:zoom="1.829812"
     inkscape:cx="493.76657"
     inkscape:cy="334.18734"
     inkscape:window-width="3331"
     inkscape:window-height="1411"
     inkscape:window-x="100"
     inkscape:window-y="-9"
     inkscape:window-maximized="1"
     inkscape:current-layer="layer1"
     showguides="true" />
  <defs
     id="defs3367" />
  <g
     inkscape:label="Layer 1"
     inkscape:groupmode="layer"
     id="layer1">
    <path
       style="fill:none;stroke:#000000;stroke-width:1.5;stroke-dasharray:none"
       id="path4589"
       sodipodi:type="arc"
       sodipodi:cx="115.49768"
       sodipodi:cy="87.335938"
       sodipodi:rx="70.996597"
       sodipodi:ry="9.3987341"
       sodipodi:start="4.7171062"
       sodipodi:end="4.7170986"
       sodipodi:open="true"
       sodipodi:arc-type="arc"
       d="m 115.83259,77.937308 a 70.996597,9.3987341 0 0 1 70.6609,9.442947 70.996597,9.3987341 0 0 1 -71.33044,9.354312 70.996597,9.3987341 0 0 1 -70.661179,-9.442912 70.996597,9.3987341 0 0 1 71.330179,-9.354347" />
    <path
       style="fill:none;stroke:#000000;stroke-width:0.7;stroke-dasharray:none"
       id="path4589-2"
       sodipodi:type="arc"
       sodipodi:cx="115.49768"
       sodipodi:cy="93.694687"
       sodipodi:rx="70.996597"
       sodipodi:ry="9.3987341"
       sodipodi:start="6.0213859"
       sodipodi:end="3.6862135"
       sodipodi:open="true"
       sodipodi:arc-type="arc"
       d="M 184.07513,91.262115 A 70.996597,9.3987341 0 0 1 150.56427,101.86696 70.996597,9.3987341 0 0 1 64.59689,100.24681 70.996597,9.3987341 0 0 1 54.772602,88.825261" />
    <path
       style="fill:none;stroke:#000000;stroke-width:1.5;stroke-dasharray:none"
       id="path4589-2-5"
       sodipodi:type="arc"
       sodipodi:cx="115.49768"
       sodipodi:cy="100.01253"
       sodipodi:rx="70.996597"
       sodipodi:ry="9.3987341"
       sodipodi:start="6.0213859"
       sodipodi:end="3.403392"
       sodipodi:open="true"
       sodipodi:arc-type="arc"
       d="m 184.07513,97.579956 a 70.996597,9.3987341 0 0 1 -27.85547,10.131564 70.996597,9.3987341 0 0 1 -81.443953,0 70.996597,9.3987341 0 0 1 -27.855474,-10.131564" />
    <path
       style="fill:none;stroke:#000000;stroke-width:0.2"
       id="path4589-2-5-9"
       sodipodi:type="arc"
       sodipodi:cx="115.49768"
       sodipodi:cy="106.14817"
       sodipodi:rx="70.996597"
       sodipodi:ry="9.3987341"
       sodipodi:start="6.0213859"
       sodipodi:end="3.403392"
       sodipodi:open="true"
       sodipodi:arc-type="arc"
       d="m 184.07513,103.7156 a 70.996597,9.3987341 0 0 1 -27.85547,10.13156 70.996597,9.3987341 0 0 1 -81.443953,0 70.996597,9.3987341 0 0 1 -27.855474,-10.13156" />
    <path
       style="fill:none;stroke:#000000;stroke-width:1;stroke-dasharray:none"
       id="path4589-2-5-9-6"
       sodipodi:type="arc"
       sodipodi:cx="115.49768"
       sodipodi:cy="111.99153"
       sodipodi:rx="70.996597"
       sodipodi:ry="9.3987341"
       sodipodi:start="6.0213859"
       sodipodi:end="3.403392"
       sodipodi:open="true"
       sodipodi:arc-type="arc"
       d="m 184.07513,109.55896 a 70.996597,9.3987341 0 0 1 -27.85547,10.13156 70.996597,9.3987341 0 0 1 -81.443953,0 70.996597,9.3987341 0 0 1 -27.855474,-10.13156" />
  </g>
</svg>
